<svg xmlns="http://www.w3.org/2000/svg" version="1.1" xmlns:xlink="http://www.w3.org/1999/xlink" width="1000" height="1000"><metadata><rdf:RDF xmlns:rdf="http://www.w3.org/1999/02/22-rdf-syntax-ns#" xmlns:dc="http://purl.org/dc/elements/1.1/"><rdf:Description><dc:creator>RealFaviconGenerator</dc:creator><dc:source>https://realfavicongenerator.net</dc:source></rdf:Description></rdf:RDF></metadata><style>
    #light-icon {
      display: inline;
    }
    #dark-icon {
      display: none;
    }

    @media (prefers-color-scheme: dark) {
      #light-icon {
        display: none;
      }
      #dark-icon {
        display: inline;
      }
    }
  </style><g id="light-icon"><svg xmlns="http://www.w3.org/2000/svg" version="1.1" xmlns:xlink="http://www.w3.org/1999/xlink" width="1000" height="1000"><g clip-path="url(#SvgjsClipPath1125)"><rect width="1000" height="1000" fill="#000000"></rect><g transform="matrix(3.3003300330033003,0,0,3.3003300330033003,0,19.801980198019805)"><svg xmlns="http://www.w3.org/2000/svg" version="1.1" xmlns:xlink="http://www.w3.org/1999/xlink" id="Layer_1" x="0px" y="0px" viewBox="0 0 303 291" style="enable-background:new 0 0 303 291;" xml:space="preserve" width="303" height="291"><style type="text/css">
	.st0{fill:#FEFEFE;}
	.st1{fill:#FFFFFF;stroke:#FFFFFF;stroke-miterlimit:10;}
	.st2{fill:none;stroke:#FFFFFF;stroke-miterlimit:10;}
	.st3{stroke:#FFFFFF;stroke-miterlimit:10;}
	.st4{stroke:#000000;stroke-miterlimit:10;}
</style><path class="st0" d="M95.3,214.9c-9.3-4.8-14.4-12.3-14.5-22.6c-0.2-28.2-0.1-56.4,0-84.5c0-12.8,8.6-23.2,21-25.5
	c1.7-0.3,3.5-0.4,5.3-0.4c27.6,0,55.1,0.1,82.7-0.1c16-0.1,26.6,13.1,26.6,26.5c-0.2,27.8,0,55.6-0.1,83.3
	c0,12.9-8.7,23.2-21.4,25.4c-1,0.2-2,0.2-3.1,0.2c-12.7,0-25.3,0-38,0c-0.2,0-0.4,0-0.8,0c0-0.3-0.1-0.7-0.1-1c0-13.3,0-26.7,0-40
	c0-2.3,0.3-4.7,0.6-7c0.8-4.8,3.4-8.6,7.4-11.3c2.7-1.8,5.5-3.4,8.4-4.9c11.6-6.1,18-15.9,20.2-28.6c0.6-3.4,0.7-7,1-10.6
	c-25.9,3.9-38.9,19.4-41.9,44.6c-1.2-4.7-2.2-9-3.4-13.2c-4.5-15.8-15.3-25.2-30.7-29.7c-2.5-0.7-5.1-1.3-7.6-1.9
	c-0.2,0.3-0.3,0.4-0.3,0.6c-0.3,12.1,2.8,23,11.4,31.9c4.1,4.2,9.2,6.8,14.3,9.5c4.2,2.2,8.1,5,9.7,9.6c1.1,3.1,2.1,6.4,2.1,9.6
	c0.2,14,0.1,28.1,0.1,42.3c-0.4,0-1,0-1.5,0c-12.2,0-24.3,0-36.5,0C102.5,217.3,98.9,216.6,95.3,214.9z"></path></svg></g></g><defs><clipPath id="SvgjsClipPath1125"><rect width="1000" height="1000" x="0" y="0" rx="350" ry="350"></rect></clipPath></defs></svg></g><g id="dark-icon"><svg xmlns="http://www.w3.org/2000/svg" version="1.1" xmlns:xlink="http://www.w3.org/1999/xlink" width="1000" height="1000"><g clip-path="url(#SvgjsClipPath1126)"><rect width="1000" height="1000" fill="#ffffff"></rect><g transform="matrix(3.3003300330033003,0,0,3.3003300330033003,0,19.801980198019805)"><svg xmlns="http://www.w3.org/2000/svg" version="1.1" xmlns:xlink="http://www.w3.org/1999/xlink" id="Layer_1" x="0px" y="0px" viewBox="0 0 303 291" style="enable-background:new 0 0 303 291;" xml:space="preserve" width="303" height="291"><style type="text/css">
	.st0{fill:#FEFEFE;}
	.st1{fill:#FFFFFF;stroke:#FFFFFF;stroke-miterlimit:10;}
	.st2{fill:none;stroke:#FFFFFF;stroke-miterlimit:10;}
	.st3{stroke:#FFFFFF;stroke-miterlimit:10;}
	.st4{stroke:#000000;stroke-miterlimit:10;}
</style><path d="M98.1,200.9c3.4,1.7,7.1,2.3,10.9,2.3c12.2,0,24.3,0,36.5,0c0.5,0,1.1,0,1.5,0c0-14.3,0.1-28.3-0.1-42.3
	c-0.1-3.2-1-6.5-2.1-9.6c-1.7-4.6-5.5-7.4-9.7-9.6c-5.1-2.7-10.3-5.3-14.3-9.5c-8.6-8.9-11.7-19.8-11.4-31.9c0-0.1,0.1-0.3,0.3-0.6
	c2.5,0.6,5.1,1.1,7.6,1.9c15.4,4.5,26.2,13.9,30.7,29.7c1.2,4.2,2.2,8.5,3.4,13.2c3-25.2,16-40.7,41.9-44.6c-0.3,3.6-0.4,7.1-1,10.6
	c-2.2,12.7-8.6,22.5-20.2,28.6c-2.9,1.5-5.7,3.1-8.4,4.9c-4,2.7-6.6,6.5-7.4,11.3c-0.4,2.3-0.6,4.6-0.6,7c-0.1,13.3,0,26.7,0,40
	c0,0.3,0.1,0.6,0.1,1c0.3,0,0.5,0,0.8,0c12.7,0,25.3,0,38,0c1,0,2.1-0.1,3.1-0.2c12.7-2.2,21.4-12.5,21.4-25.4
	c0-27.8-0.1-55.6,0.1-83.3c0.1-13.4-10.6-26.6-26.6-26.5c-27.6,0.2-55.1,0-82.7,0.1c-1.8,0-3.6,0.1-5.3,0.4
	c-12.3,2.3-20.9,12.7-21,25.5c-0.1,28.2-0.1,56.4,0,84.5C83.6,188.5,88.6,196,98.1,200.9"></path></svg></g></g><defs><clipPath id="SvgjsClipPath1126"><rect width="1000" height="1000" x="0" y="0" rx="350" ry="350"></rect></clipPath></defs></svg></g></svg>
