<?xml version="1.0" encoding="utf-8"?>
<svg version="1.1" id="Layer_1" xmlns:xlink="http://www.w3.org/1999/xlink"
	 xmlns="http://www.w3.org/2000/svg" x="0px" y="0px" viewBox="0 0 303 291"
	 style="enable-background:new 0 0 303 291;" xml:space="preserve">
<style type="text/css">
	.st0{fill:#FEFEFE;}
	.st1{fill:#FFFFFF;stroke:#FFFFFF;stroke-miterlimit:10;}
	.st2{fill:none;stroke:#FFFFFF;stroke-miterlimit:10;}
	.st3{stroke:#FFFFFF;stroke-miterlimit:10;}
	.st4{stroke:#000000;stroke-miterlimit:10;}
</style>
<path class="st0" d="M95.3,214.9c-9.3-4.8-14.4-12.3-14.5-22.6c-0.2-28.2-0.1-56.4,0-84.5c0-12.8,8.6-23.2,21-25.5
	c1.7-0.3,3.5-0.4,5.3-0.4c27.6,0,55.1,0.1,82.7-0.1c16-0.1,26.6,13.1,26.6,26.5c-0.2,27.8,0,55.6-0.1,83.3
	c0,12.9-8.7,23.2-21.4,25.4c-1,0.2-2,0.2-3.1,0.2c-12.7,0-25.3,0-38,0c-0.2,0-0.4,0-0.8,0c0-0.3-0.1-0.7-0.1-1c0-13.3,0-26.7,0-40
	c0-2.3,0.3-4.7,0.6-7c0.8-4.8,3.4-8.6,7.4-11.3c2.7-1.8,5.5-3.4,8.4-4.9c11.6-6.1,18-15.9,20.2-28.6c0.6-3.4,0.7-7,1-10.6
	c-25.9,3.9-38.9,19.4-41.9,44.6c-1.2-4.7-2.2-9-3.4-13.2c-4.5-15.8-15.3-25.2-30.7-29.7c-2.5-0.7-5.1-1.3-7.6-1.9
	c-0.2,0.3-0.3,0.4-0.3,0.6c-0.3,12.1,2.8,23,11.4,31.9c4.1,4.2,9.2,6.8,14.3,9.5c4.2,2.2,8.1,5,9.7,9.6c1.1,3.1,2.1,6.4,2.1,9.6
	c0.2,14,0.1,28.1,0.1,42.3c-0.4,0-1,0-1.5,0c-12.2,0-24.3,0-36.5,0C102.5,217.3,98.9,216.6,95.3,214.9z"/>
</svg>
